<svg id="Calque_1" data-name="Calque 1" xmlns="http://www.w3.org/2000/svg" viewBox="0 0 700 700"><defs><style>.cls-1{fill:#fbd467;}</style></defs><path class="cls-1" d="M603.05,310.27c-.26-3.23-.61-6.38-1-9.44h0a8.75,8.75,0,0,0-8.67-7.7H551.25V196.88a8.57,8.57,0,0,0-.79-3.59l-35-78.75a8.75,8.75,0,0,0-15.92,0l-35,78.75a8.57,8.57,0,0,0-.79,3.59v96.25h-17.5v-87.5a8.74,8.74,0,0,0-8.75-8.75H419.74a43.17,43.17,0,0,0,9-26.25,43.9,43.9,0,0,0-35-42.88V109.38h-17.5v18.37a43.9,43.9,0,0,0-35,42.88,43.11,43.11,0,0,0,9,26.25H332.5a8.75,8.75,0,0,0-8.75,8.75v87.5h-17.5v-175a8.74,8.74,0,0,0-8.75-8.75h-70a8.75,8.75,0,0,0-8.75,8.75v175H176.66a8.87,8.87,0,0,0-8.75,7.7,238.73,238.73,0,0,0-1.66,23.88l-71.93,79.1a17.51,17.51,0,0,0,13,29.32h41.48v52.5A61.32,61.32,0,0,0,210,546.88h70v78.75a8.76,8.76,0,0,0,8.75,8.75h245a8.76,8.76,0,0,0,8.75-8.75V479.94a219.22,219.22,0,0,0,60.55-169.67ZM507.5,139.65l6,13.48h-11.9Zm-13.74,31h27.48l7.79,17.5H486Zm40,35v87.5h-17.5v-87.5Zm-52.5,0h17.5v87.5h-17.5ZM385,144.38a26.32,26.32,0,1,1-18.54,7.71A26.26,26.26,0,0,1,385,144.38Zm-43.75,70h87.5v17.5h-87.5Zm87.5,35v43.75h-17.5V249.38Zm-35,0v43.75h-17.5V249.38Zm-52.5,0h17.5v43.75h-17.5Zm-105-122.5h52.5v17.5h-35v17.5h35v17.5h-17.5v17.5h17.5v17.5h-17.5v17.5h17.5v17.5h-35v17.5h35v17.5h-17.5v8.75h-35ZM527.54,470.14a8.68,8.68,0,0,0-2.54,6.22V616.88H297.5v-70a17.55,17.55,0,0,0-17.5-17.5H210a43.74,43.74,0,0,1-43.75-43.75V424.38a8.74,8.74,0,0,0-8.75-8.75H107.27L181.47,334h0a8.49,8.49,0,0,0,2.27-5.86c0-5.87.26-11.73.79-17.5h401v1a201.52,201.52,0,0,1-58,158.55Z"/></svg>